<svg id="visual" viewBox="0 0 900 600" width="900" height="600" xmlns="http://www.w3.org/2000/svg" xmlns:xlink="http://www.w3.org/1999/xlink" version="1.1"><rect x="0" y="0" width="900" height="600" fill="#ffffff"></rect><defs><linearGradient id="grad1_0" x1="33.3%" y1="0%" x2="100%" y2="100%"><stop offset="20%" stop-color="#92c5fc" stop-opacity="1"></stop><stop offset="80%" stop-color="#92c5fc" stop-opacity="1"></stop></linearGradient></defs><defs><linearGradient id="grad1_1" x1="33.3%" y1="0%" x2="100%" y2="100%"><stop offset="20%" stop-color="#92c5fc" stop-opacity="1"></stop><stop offset="80%" stop-color="#a6cefd" stop-opacity="1"></stop></linearGradient></defs><defs><linearGradient id="grad1_2" x1="33.3%" y1="0%" x2="100%" y2="100%"><stop offset="20%" stop-color="#bad8fd" stop-opacity="1"></stop><stop offset="80%" stop-color="#a6cefd" stop-opacity="1"></stop></linearGradient></defs><defs><linearGradient id="grad1_3" x1="33.3%" y1="0%" x2="100%" y2="100%"><stop offset="20%" stop-color="#bad8fd" stop-opacity="1"></stop><stop offset="80%" stop-color="#cce2fe" stop-opacity="1"></stop></linearGradient></defs><defs><linearGradient id="grad1_4" x1="33.3%" y1="0%" x2="100%" y2="100%"><stop offset="20%" stop-color="#ddebfe" stop-opacity="1"></stop><stop offset="80%" stop-color="#cce2fe" stop-opacity="1"></stop></linearGradient></defs><defs><linearGradient id="grad1_5" x1="33.3%" y1="0%" x2="100%" y2="100%"><stop offset="20%" stop-color="#ddebfe" stop-opacity="1"></stop><stop offset="80%" stop-color="#eef5ff" stop-opacity="1"></stop></linearGradient></defs><defs><linearGradient id="grad1_6" x1="33.3%" y1="0%" x2="100%" y2="100%"><stop offset="20%" stop-color="#ffffff" stop-opacity="1"></stop><stop offset="80%" stop-color="#eef5ff" stop-opacity="1"></stop></linearGradient></defs><defs><linearGradient id="grad2_0" x1="0%" y1="0%" x2="66.7%" y2="100%"><stop offset="20%" stop-color="#92c5fc" stop-opacity="1"></stop><stop offset="80%" stop-color="#92c5fc" stop-opacity="1"></stop></linearGradient></defs><defs><linearGradient id="grad2_1" x1="0%" y1="0%" x2="66.7%" y2="100%"><stop offset="20%" stop-color="#a6cefd" stop-opacity="1"></stop><stop offset="80%" stop-color="#92c5fc" stop-opacity="1"></stop></linearGradient></defs><defs><linearGradient id="grad2_2" x1="0%" y1="0%" x2="66.7%" y2="100%"><stop offset="20%" stop-color="#a6cefd" stop-opacity="1"></stop><stop offset="80%" stop-color="#bad8fd" stop-opacity="1"></stop></linearGradient></defs><defs><linearGradient id="grad2_3" x1="0%" y1="0%" x2="66.7%" y2="100%"><stop offset="20%" stop-color="#cce2fe" stop-opacity="1"></stop><stop offset="80%" stop-color="#bad8fd" stop-opacity="1"></stop></linearGradient></defs><defs><linearGradient id="grad2_4" x1="0%" y1="0%" x2="66.7%" y2="100%"><stop offset="20%" stop-color="#cce2fe" stop-opacity="1"></stop><stop offset="80%" stop-color="#ddebfe" stop-opacity="1"></stop></linearGradient></defs><defs><linearGradient id="grad2_5" x1="0%" y1="0%" x2="66.7%" y2="100%"><stop offset="20%" stop-color="#eef5ff" stop-opacity="1"></stop><stop offset="80%" stop-color="#ddebfe" stop-opacity="1"></stop></linearGradient></defs><defs><linearGradient id="grad2_6" x1="0%" y1="0%" x2="66.7%" y2="100%"><stop offset="20%" stop-color="#eef5ff" stop-opacity="1"></stop><stop offset="80%" stop-color="#ffffff" stop-opacity="1"></stop></linearGradient></defs><g transform="translate(900, 0)"><path d="M0 486.7C-45.8 489.1 -91.6 491.5 -126 470.2C-160.4 448.9 -183.3 403.9 -220.5 381.9C-257.7 359.9 -309.1 360.8 -333 333C-357 305.3 -353.6 249.1 -360.3 208C-367 166.9 -383.9 141.1 -406.7 109C-429.4 76.8 -458.1 38.4 -486.7 0L0 0Z" fill="#f7faff"></path><path d="M0 417.2C-39.3 419.2 -78.5 421.2 -108 403C-137.5 384.8 -157.1 346.2 -189 327.4C-220.9 308.5 -264.9 309.2 -285.5 285.5C-306 261.7 -303 213.5 -308.8 178.3C-314.6 143.1 -329 120.9 -348.6 93.4C-368.1 65.9 -392.6 32.9 -417.2 0L0 0Z" fill="#e6f0ff"></path><path d="M0 347.7C-32.7 349.4 -65.4 351 -90 335.8C-114.5 320.6 -130.9 288.5 -157.5 272.8C-184.1 257.1 -220.8 257.7 -237.9 237.9C-255 218.1 -252.5 177.9 -257.3 148.6C-262.1 119.2 -274.2 100.8 -290.5 77.8C-306.7 54.9 -327.2 27.4 -347.7 0L0 0Z" fill="#d5e6fe"></path><path d="M0 278.1C-26.2 279.5 -52.3 280.8 -72 268.7C-91.6 256.5 -104.8 230.8 -126 218.2C-147.2 205.6 -176.6 206.1 -190.3 190.3C-204 174.5 -202 142.3 -205.9 118.9C-209.7 95.4 -219.4 80.6 -232.4 62.3C-245.4 43.9 -261.8 22 -278.1 0L0 0Z" fill="#c3ddfe"></path><path d="M0 208.6C-19.6 209.6 -39.3 210.6 -54 201.5C-68.7 192.4 -78.6 173.1 -94.5 163.7C-110.4 154.2 -132.5 154.6 -142.7 142.7C-153 130.9 -151.5 106.7 -154.4 89.1C-157.3 71.5 -164.5 60.5 -174.3 46.7C-184 32.9 -196.3 16.5 -208.6 0L0 0Z" fill="#b0d3fd"></path><path d="M0 139.1C-13.1 139.7 -26.2 140.4 -36 134.3C-45.8 128.3 -52.4 115.4 -63 109.1C-73.6 102.8 -88.3 103.1 -95.2 95.2C-102 87.2 -101 71.2 -102.9 59.4C-104.9 47.7 -109.7 40.3 -116.2 31.1C-122.7 22 -130.9 11 -139.1 0L0 0Z" fill="#9ccafc"></path><path d="M0 69.5C-6.5 69.9 -13.1 70.2 -18 67.2C-22.9 64.1 -26.2 57.7 -31.5 54.6C-36.8 51.4 -44.2 51.5 -47.6 47.6C-51 43.6 -50.5 35.6 -51.5 29.7C-52.4 23.8 -54.8 20.2 -58.1 15.6C-61.3 11 -65.4 5.5 -69.5 0L0 0Z" fill="#92c5fc"></path></g><g transform="translate(0, 600)"><path d="M0 -486.7C40 -473.6 79.9 -460.4 120.1 -448.2C160.3 -436 200.7 -424.9 229 -396.6C257.3 -368.4 273.5 -323 286.4 -286.4C299.3 -249.7 309 -221.9 344.7 -199C380.4 -176.1 442.1 -158.3 470.2 -126C498.2 -93.7 492.5 -46.8 486.7 0L0 0Z" fill="#f7faff"></path><path d="M0 -417.2C34.2 -405.9 68.5 -394.6 102.9 -384.2C137.4 -373.7 172 -364.2 196.3 -340C220.5 -315.8 234.4 -276.9 245.5 -245.5C256.5 -214.1 264.8 -190.2 295.4 -170.6C326 -151 379 -135.7 403 -108C427 -80.3 422.1 -40.1 417.2 0L0 0Z" fill="#e6f0ff"></path><path d="M0 -347.7C28.5 -338.3 57.1 -328.8 85.8 -320.1C114.5 -311.4 143.4 -303.5 163.6 -283.3C183.8 -263.1 195.3 -230.7 204.6 -204.6C213.8 -178.4 220.7 -158.5 246.2 -142.1C271.7 -125.8 315.8 -113.1 335.8 -90C355.8 -66.9 351.8 -33.4 347.7 0L0 0Z" fill="#d5e6fe"></path><path d="M0 -278.1C22.8 -270.6 45.7 -263.1 68.6 -256.1C91.6 -249.2 114.7 -242.8 130.9 -226.7C147 -210.5 156.3 -184.6 163.6 -163.6C171 -142.7 176.6 -126.8 197 -113.7C217.4 -100.7 252.7 -90.5 268.7 -72C284.7 -53.5 281.4 -26.8 278.1 0L0 0Z" fill="#c3ddfe"></path><path d="M0 -208.6C17.1 -203 34.2 -197.3 51.5 -192.1C68.7 -186.9 86 -182.1 98.1 -170C110.3 -157.9 117.2 -138.4 122.7 -122.7C128.3 -107 132.4 -95.1 147.7 -85.3C163 -75.5 189.5 -67.8 201.5 -54C213.5 -40.1 211.1 -20.1 208.6 0L0 0Z" fill="#b0d3fd"></path><path d="M0 -139.1C11.4 -135.3 22.8 -131.5 34.3 -128.1C45.8 -124.6 57.3 -121.4 65.4 -113.3C73.5 -105.3 78.1 -92.3 81.8 -81.8C85.5 -71.4 88.3 -63.4 98.5 -56.9C108.7 -50.3 126.3 -45.2 134.3 -36C142.3 -26.8 140.7 -13.4 139.1 0L0 0Z" fill="#9ccafc"></path><path d="M0 -69.5C5.7 -67.7 11.4 -65.8 17.2 -64C22.9 -62.3 28.7 -60.7 32.7 -56.7C36.8 -52.6 39.1 -46.1 40.9 -40.9C42.8 -35.7 44.1 -31.7 49.2 -28.4C54.3 -25.2 63.2 -22.6 67.2 -18C71.2 -13.4 70.4 -6.7 69.5 0L0 0Z" fill="#92c5fc"></path></g></svg>