<svg id="visual" viewBox="0 0 900 600" width="900" height="600" xmlns="http://www.w3.org/2000/svg" xmlns:xlink="http://www.w3.org/1999/xlink" version="1.1"><rect x="0" y="0" width="900" height="600" fill="#ffffff"></rect><defs><linearGradient id="grad1_0" x1="33.3%" y1="0%" x2="100%" y2="100%"><stop offset="20%" stop-color="#6a89ff" stop-opacity="1"></stop><stop offset="80%" stop-color="#6a89ff" stop-opacity="1"></stop></linearGradient></defs><defs><linearGradient id="grad1_1" x1="33.3%" y1="0%" x2="100%" y2="100%"><stop offset="20%" stop-color="#6a89ff" stop-opacity="1"></stop><stop offset="80%" stop-color="#8699ff" stop-opacity="1"></stop></linearGradient></defs><defs><linearGradient id="grad1_2" x1="33.3%" y1="0%" x2="100%" y2="100%"><stop offset="20%" stop-color="#9ea9ff" stop-opacity="1"></stop><stop offset="80%" stop-color="#8699ff" stop-opacity="1"></stop></linearGradient></defs><defs><linearGradient id="grad1_3" x1="33.3%" y1="0%" x2="100%" y2="100%"><stop offset="20%" stop-color="#9ea9ff" stop-opacity="1"></stop><stop offset="80%" stop-color="#b3b9ff" stop-opacity="1"></stop></linearGradient></defs><defs><linearGradient id="grad1_4" x1="33.3%" y1="0%" x2="100%" y2="100%"><stop offset="20%" stop-color="#c7caff" stop-opacity="1"></stop><stop offset="80%" stop-color="#b3b9ff" stop-opacity="1"></stop></linearGradient></defs><defs><linearGradient id="grad1_5" x1="33.3%" y1="0%" x2="100%" y2="100%"><stop offset="20%" stop-color="#c7caff" stop-opacity="1"></stop><stop offset="80%" stop-color="#dbdcff" stop-opacity="1"></stop></linearGradient></defs><defs><linearGradient id="grad1_6" x1="33.3%" y1="0%" x2="100%" y2="100%"><stop offset="20%" stop-color="#ededff" stop-opacity="1"></stop><stop offset="80%" stop-color="#dbdcff" stop-opacity="1"></stop></linearGradient></defs><defs><linearGradient id="grad1_7" x1="33.3%" y1="0%" x2="100%" y2="100%"><stop offset="20%" stop-color="#ededff" stop-opacity="1"></stop><stop offset="80%" stop-color="#ffffff" stop-opacity="1"></stop></linearGradient></defs><defs><linearGradient id="grad2_0" x1="0%" y1="0%" x2="66.7%" y2="100%"><stop offset="20%" stop-color="#6a89ff" stop-opacity="1"></stop><stop offset="80%" stop-color="#6a89ff" stop-opacity="1"></stop></linearGradient></defs><defs><linearGradient id="grad2_1" x1="0%" y1="0%" x2="66.7%" y2="100%"><stop offset="20%" stop-color="#8699ff" stop-opacity="1"></stop><stop offset="80%" stop-color="#6a89ff" stop-opacity="1"></stop></linearGradient></defs><defs><linearGradient id="grad2_2" x1="0%" y1="0%" x2="66.7%" y2="100%"><stop offset="20%" stop-color="#8699ff" stop-opacity="1"></stop><stop offset="80%" stop-color="#9ea9ff" stop-opacity="1"></stop></linearGradient></defs><defs><linearGradient id="grad2_3" x1="0%" y1="0%" x2="66.7%" y2="100%"><stop offset="20%" stop-color="#b3b9ff" stop-opacity="1"></stop><stop offset="80%" stop-color="#9ea9ff" stop-opacity="1"></stop></linearGradient></defs><defs><linearGradient id="grad2_4" x1="0%" y1="0%" x2="66.7%" y2="100%"><stop offset="20%" stop-color="#b3b9ff" stop-opacity="1"></stop><stop offset="80%" stop-color="#c7caff" stop-opacity="1"></stop></linearGradient></defs><defs><linearGradient id="grad2_5" x1="0%" y1="0%" x2="66.7%" y2="100%"><stop offset="20%" stop-color="#dbdcff" stop-opacity="1"></stop><stop offset="80%" stop-color="#c7caff" stop-opacity="1"></stop></linearGradient></defs><defs><linearGradient id="grad2_6" x1="0%" y1="0%" x2="66.7%" y2="100%"><stop offset="20%" stop-color="#dbdcff" stop-opacity="1"></stop><stop offset="80%" stop-color="#ededff" stop-opacity="1"></stop></linearGradient></defs><defs><linearGradient id="grad2_7" x1="0%" y1="0%" x2="66.7%" y2="100%"><stop offset="20%" stop-color="#ffffff" stop-opacity="1"></stop><stop offset="80%" stop-color="#ededff" stop-opacity="1"></stop></linearGradient></defs><g transform="translate(900, 0)"><path d="M0 405.6C-35.9 401.1 -71.7 396.5 -102 380.6C-132.2 364.6 -156.9 337.4 -183.5 317.8C-210.1 298.3 -238.7 286.5 -270.1 270.1C-301.5 253.7 -335.7 232.6 -351.3 202.8C-366.9 173 -364 134.4 -369.9 99.1C-375.9 63.9 -390.8 31.9 -405.6 0L0 0Z" fill="#f6f6ff"></path><path d="M0 354.9C-31.4 350.9 -62.8 346.9 -89.2 333C-115.7 319.1 -137.3 295.2 -160.6 278.1C-183.9 261 -208.9 250.7 -236.4 236.4C-263.8 222 -293.7 203.6 -307.4 177.5C-321 151.4 -318.5 117.6 -323.7 86.7C-328.9 55.9 -341.9 27.9 -354.9 0L0 0Z" fill="#e4e4ff"></path><path d="M0 304.2C-26.9 300.8 -53.8 297.4 -76.5 285.4C-99.2 273.5 -117.7 253 -137.6 238.4C-157.6 223.7 -179 214.9 -202.6 202.6C-226.1 190.3 -251.7 174.5 -263.5 152.1C-275.2 129.7 -273 100.8 -277.5 74.3C-281.9 47.9 -293.1 23.9 -304.2 0L0 0Z" fill="#d1d3ff"></path><path d="M0 253.5C-22.4 250.7 -44.8 247.8 -63.7 237.9C-82.6 227.9 -98 210.9 -114.7 198.6C-131.3 186.4 -149.2 179.1 -168.8 168.8C-188.4 158.6 -209.8 145.4 -219.6 126.8C-229.3 108.1 -227.5 84 -231.2 62C-234.9 39.9 -244.2 20 -253.5 0L0 0Z" fill="#bdc2ff"></path><path d="M0 202.8C-17.9 200.5 -35.9 198.3 -51 190.3C-66.1 182.3 -78.4 168.7 -91.7 158.9C-105.1 149.2 -119.4 143.3 -135.1 135.1C-150.7 126.8 -167.8 116.3 -175.6 101.4C-183.5 86.5 -182 67.2 -185 49.6C-188 31.9 -195.4 16 -202.8 0L0 0Z" fill="#a9b1ff"></path><path d="M0 152.1C-13.4 150.4 -26.9 148.7 -38.2 142.7C-49.6 136.7 -58.8 126.5 -68.8 119.2C-78.8 111.9 -89.5 107.4 -101.3 101.3C-113.1 95.1 -125.9 87.2 -131.7 76.1C-137.6 64.9 -136.5 50.4 -138.7 37.2C-141 23.9 -146.5 12 -152.1 0L0 0Z" fill="#92a1ff"></path><path d="M0 101.4C-9 100.3 -17.9 99.1 -25.5 95.1C-33.1 91.2 -39.2 84.3 -45.9 79.5C-52.5 74.6 -59.7 71.6 -67.5 67.5C-75.4 63.4 -83.9 58.2 -87.8 50.7C-91.7 43.2 -91 33.6 -92.5 24.8C-94 16 -97.7 8 -101.4 0L0 0Z" fill="#7991ff"></path><path d="M0 50.7C-4.5 50.1 -9 49.6 -12.7 47.6C-16.5 45.6 -19.6 42.2 -22.9 39.7C-26.3 37.3 -29.8 35.8 -33.8 33.8C-37.7 31.7 -42 29.1 -43.9 25.4C-45.9 21.6 -45.5 16.8 -46.2 12.4C-47 8 -48.8 4 -50.7 0L0 0Z" fill="#6a89ff"></path></g><g transform="translate(0, 600)"><path d="M0 -405.6C34.1 -393.7 68.3 -381.9 98.4 -367.1C128.4 -352.2 154.5 -334.5 185.5 -321.3C216.5 -308.1 252.4 -299.5 280 -280C307.6 -260.5 327 -230.1 345.5 -199.5C364.1 -168.9 381.9 -138.3 391.8 -105C401.7 -71.7 403.7 -35.9 405.6 0L0 0Z" fill="#f6f6ff"></path><path d="M0 -354.9C29.9 -344.5 59.7 -334.1 86.1 -321.2C112.4 -308.2 135.2 -292.7 162.3 -281.1C189.4 -269.6 220.8 -262.1 245 -245C269.2 -227.9 286.1 -201.3 302.4 -174.6C318.6 -147.8 334.2 -121 342.8 -91.9C351.5 -62.7 353.2 -31.4 354.9 0L0 0Z" fill="#e4e4ff"></path><path d="M0 -304.2C25.6 -295.3 51.2 -286.4 73.8 -275.3C96.3 -264.2 115.9 -250.9 139.1 -241C162.4 -231.1 189.3 -224.6 210 -210C230.7 -195.4 245.2 -172.5 259.2 -149.6C273.1 -126.7 286.4 -103.7 293.9 -78.7C301.3 -53.8 302.7 -26.9 304.2 0L0 0Z" fill="#d1d3ff"></path><path d="M0 -253.5C21.3 -246.1 42.7 -238.7 61.5 -229.4C80.3 -220.1 96.6 -209 115.9 -200.8C135.3 -192.6 157.7 -187.2 175 -175C192.3 -162.8 204.4 -143.8 216 -124.7C227.6 -105.6 238.7 -86.4 244.9 -65.6C251.1 -44.8 252.3 -22.4 253.5 0L0 0Z" fill="#bdc2ff"></path><path d="M0 -202.8C17.1 -196.9 34.1 -190.9 49.2 -183.5C64.2 -176.1 77.3 -167.2 92.7 -160.6C108.2 -154.1 126.2 -149.8 140 -140C153.8 -130.2 163.5 -115 172.8 -99.8C182.1 -84.5 191 -69.1 195.9 -52.5C200.8 -35.9 201.8 -17.9 202.8 0L0 0Z" fill="#a9b1ff"></path><path d="M0 -152.1C12.8 -147.7 25.6 -143.2 36.9 -137.6C48.2 -132.1 57.9 -125.4 69.6 -120.5C81.2 -115.5 94.6 -112.3 105 -105C115.4 -97.7 122.6 -86.3 129.6 -74.8C136.5 -63.4 143.2 -51.8 146.9 -39.4C150.6 -26.9 151.4 -13.4 152.1 0L0 0Z" fill="#92a1ff"></path><path d="M0 -101.4C8.5 -98.4 17.1 -95.5 24.6 -91.8C32.1 -88.1 38.6 -83.6 46.4 -80.3C54.1 -77 63.1 -74.9 70 -70C76.9 -65.1 81.7 -57.5 86.4 -49.9C91 -42.2 95.5 -34.6 98 -26.2C100.4 -17.9 100.9 -9 101.4 0L0 0Z" fill="#7991ff"></path><path d="M0 -50.7C4.3 -49.2 8.5 -47.7 12.3 -45.9C16.1 -44 19.3 -41.8 23.2 -40.2C27.1 -38.5 31.5 -37.4 35 -35C38.5 -32.6 40.9 -28.8 43.2 -24.9C45.5 -21.1 47.7 -17.3 49 -13.1C50.2 -9 50.5 -4.5 50.7 0L0 0Z" fill="#6a89ff"></path></g></svg>